<svg xmlns="http://www.w3.org/2000/svg" viewBox="0 0 512 512" role="img" aria-label="QRIS placeholder">
  <defs>
    <linearGradient id="g" x1="0" y1="0" x2="1" y2="1">
      <stop offset="0%" stop-color="#d9f3ef"/>
      <stop offset="100%" stop-color="#ffe7d4"/>
    </linearGradient>
  </defs>
  <rect width="512" height="512" fill="url(#g)"/>
  <rect x="48" y="48" width="416" height="416" rx="18" fill="#ffffff" stroke="#0f766e" stroke-width="8"/>
  <g fill="#0f766e">
    <rect x="84" y="84" width="96" height="96" rx="8"/>
    <rect x="332" y="84" width="96" height="96" rx="8"/>
    <rect x="84" y="332" width="96" height="96" rx="8"/>
    <rect x="212" y="212" width="24" height="24"/>
    <rect x="248" y="212" width="24" height="24"/>
    <rect x="284" y="212" width="24" height="24"/>
    <rect x="212" y="248" width="24" height="24"/>
    <rect x="284" y="248" width="24" height="24"/>
    <rect x="212" y="284" width="24" height="24"/>
    <rect x="248" y="284" width="24" height="24"/>
    <rect x="284" y="284" width="24" height="24"/>
    <rect x="332" y="212" width="24" height="24"/>
    <rect x="368" y="248" width="24" height="24"/>
    <rect x="404" y="212" width="24" height="24"/>
    <rect x="332" y="284" width="24" height="24"/>
    <rect x="404" y="284" width="24" height="24"/>
    <rect x="212" y="332" width="24" height="24"/>
    <rect x="248" y="368" width="24" height="24"/>
    <rect x="284" y="332" width="24" height="24"/>
  </g>
  <text x="256" y="486" text-anchor="middle" font-size="22" font-family="Arial, sans-serif" fill="#155e75">Replace with your real QRIS image</text>
</svg>
